<svg width="375" height="333" viewBox="0 0 375 333" fill="none" xmlns="http://www.w3.org/2000/svg">
<circle cx="183.5" cy="166.5" r="166.5" fill="#A2C5AC"/>
<path d="M60.2802 127.271C60.2802 126.031 60.1807 125.129 59.9818 124.562C59.7829 123.981 59.4923 123.591 59.1098 123.392C58.7273 123.193 58.1077 123.01 57.2509 122.841C56.2105 122.612 55.4608 122.428 55.0019 122.291L55.0478 121.12H70.5614V122.313C70.1177 122.497 69.72 122.635 69.3681 122.727C69.0162 122.803 68.5496 122.895 67.9682 123.002C67.2338 123.124 66.6907 123.277 66.3388 123.461C65.9869 123.629 65.7115 123.989 65.5126 124.54C65.329 125.09 65.2372 125.955 65.2372 127.133V143.84C65.2372 145.691 65.4132 146.976 65.765 147.695C66.1322 148.399 66.8131 148.843 67.8075 149.026C68.802 149.21 70.6226 149.302 73.2694 149.302C74.9524 149.302 76.3676 149.088 77.515 148.659C78.6778 148.215 79.6034 147.336 80.2919 146.02L80.6361 145.332C80.8809 144.827 81.1028 144.406 81.3017 144.069C81.5006 143.717 81.7301 143.396 81.9901 143.105L83.3671 143.151L81.9213 151.252C79.8712 151.084 78.1959 151 76.8954 151H55.0248L54.9789 149.761C55.2084 149.684 55.698 149.539 56.4477 149.325C57.3197 149.095 58.0082 148.873 58.5131 148.659C59.018 148.43 59.4387 148.07 59.7753 147.581C60.1119 147.076 60.2802 146.38 60.2802 145.492V127.271ZM99.2984 138.791L98.8624 139.893C98.1739 141.683 97.6308 143.159 97.233 144.322C96.8352 145.469 96.6363 146.357 96.6363 146.984C96.6363 147.535 96.8352 147.986 97.233 148.338C97.6461 148.69 98.1127 148.95 98.6329 149.118C99.1684 149.286 99.8186 149.447 100.584 149.6L101.02 149.692V151H90.1876V149.807C90.4018 149.638 90.616 149.501 90.8302 149.394C91.0597 149.271 91.3427 149.141 91.6793 149.003C92.2148 148.789 92.6432 148.567 92.9645 148.338C93.3011 148.108 93.5994 147.749 93.8595 147.259C94.0125 146.953 94.1655 146.609 94.3185 146.227C94.4868 145.829 94.5939 145.569 94.6398 145.446L94.9151 144.735L103.498 122.75C103.559 122.581 103.605 122.291 103.636 121.877C103.651 121.571 103.674 121.327 103.705 121.143C103.751 120.944 103.827 120.768 103.934 120.615C104.684 120.615 105.326 120.692 105.862 120.845C106.413 120.998 106.963 121.281 107.514 121.694L118.048 146.961C118.247 147.435 118.476 147.818 118.736 148.108C118.997 148.384 119.264 148.598 119.54 148.751C119.83 148.889 120.22 149.057 120.71 149.256C121.123 149.394 121.559 149.577 122.018 149.807L121.972 151H108.616L108.57 149.807C109.289 149.592 109.901 149.378 110.406 149.164C110.926 148.95 111.393 148.652 111.806 148.269C112.219 147.887 112.425 147.42 112.425 146.869C112.425 146.257 111.66 143.985 110.13 140.053C110.039 139.824 109.947 139.602 109.855 139.388C109.779 139.174 109.71 138.975 109.649 138.791H99.2984ZM104.278 125.48L100.079 136.771H108.799L104.278 125.48ZM143.687 122.313C143.06 122.543 142.249 122.757 141.254 122.956C140.428 123.124 139.831 123.316 139.464 123.53C139.112 123.729 138.837 124.126 138.638 124.723C138.454 125.305 138.363 126.238 138.363 127.523V137.322C138.363 141.009 139.105 143.901 140.589 145.997C142.088 148.078 144.628 149.118 148.208 149.118C154.771 149.118 158.053 145.056 158.053 136.932V127.913C158.053 126.551 157.954 125.557 157.755 124.93C157.571 124.302 157.28 123.874 156.883 123.645C156.485 123.4 155.819 123.163 154.886 122.933C153.999 122.704 153.272 122.489 152.706 122.291V121.12H165.075L165.121 122.313C164.892 122.436 164.639 122.535 164.364 122.612C164.104 122.673 163.752 122.742 163.308 122.818C162.727 122.925 162.26 123.033 161.909 123.14C161.557 123.231 161.228 123.4 160.922 123.645C160.631 123.874 160.424 124.195 160.302 124.608C160.057 125.45 159.935 126.429 159.935 127.546C159.935 128.28 159.95 129.443 159.981 131.034C160.011 132.625 160.027 133.819 160.027 134.614C160.027 138.103 159.721 141.048 159.109 143.45C158.512 145.852 157.235 147.81 155.276 149.325C153.333 150.839 150.464 151.597 146.67 151.597C144.467 151.597 142.417 151.252 140.52 150.564C138.623 149.86 137.047 148.774 135.792 147.305C134.553 145.836 133.819 144 133.589 141.797C133.406 140.206 133.314 138.194 133.314 135.762C133.314 134.354 133.337 132.962 133.383 131.585C133.413 129.749 133.429 128.387 133.429 127.5C133.429 126.368 133.352 125.488 133.199 124.861C133.046 124.249 132.664 123.79 132.052 123.484C131.455 123.178 130.644 122.895 129.619 122.635C129.114 122.497 128.716 122.382 128.426 122.291L128.494 121.12H143.641L143.687 122.313ZM188.465 138.562C188.098 138.011 187.785 137.605 187.524 137.345C187.28 137.085 186.981 136.886 186.629 136.749C186.278 136.611 185.796 136.527 185.184 136.496L183.738 136.404V145.24C183.738 146.341 183.83 147.152 184.013 147.672C184.212 148.193 184.472 148.537 184.793 148.705C185.13 148.873 185.627 149.011 186.285 149.118C186.759 149.195 187.18 149.279 187.547 149.371C187.915 149.462 188.297 149.608 188.695 149.807L188.649 151H174.122L174.076 149.807C174.489 149.577 174.872 149.417 175.224 149.325C175.591 149.218 176.012 149.126 176.486 149.049C177.098 148.958 177.549 148.827 177.84 148.659C178.146 148.476 178.383 148.085 178.551 147.489C178.72 146.892 178.804 145.944 178.804 144.643V127.248C178.804 126.161 178.712 125.35 178.528 124.815C178.345 124.264 178.077 123.889 177.725 123.69C177.389 123.476 176.853 123.254 176.119 123.025C175.338 122.811 174.658 122.574 174.076 122.313L174.122 121.12H184.702C187.563 121.12 190.064 121.25 192.206 121.51C194.348 121.77 196.26 122.459 197.943 123.576C199.642 124.693 200.491 126.414 200.491 128.739C200.491 130.177 200.085 131.424 199.274 132.48C198.479 133.52 197.446 134.339 196.176 134.936C194.922 135.532 193.575 135.938 192.137 136.152C192.321 136.397 193.231 137.667 194.868 139.961C196.077 141.675 197.102 143.105 197.943 144.253C198.8 145.4 199.649 146.479 200.491 147.489C200.996 148.024 201.447 148.445 201.845 148.751C202.243 149.057 202.74 149.302 203.336 149.485C203.933 149.669 204.683 149.761 205.585 149.761V151.046C204.071 151.413 202.724 151.597 201.546 151.597C199.925 151.597 198.433 151.099 197.071 150.105C195.725 149.111 194.555 147.932 193.56 146.571C192.581 145.209 191.456 143.473 190.187 141.361C189.437 140.076 188.863 139.143 188.465 138.562ZM184.885 134.867C186.844 134.867 188.534 134.752 189.957 134.522C191.38 134.293 192.596 133.75 193.606 132.893C194.631 132.036 195.144 130.743 195.144 129.015C195.144 127.118 194.593 125.718 193.491 124.815C192.405 123.912 191.127 123.361 189.659 123.163C188.19 122.948 186.385 122.841 184.243 122.841H183.738V134.867H184.885ZM224.248 145.033C224.248 146.196 224.347 147.053 224.546 147.604C224.76 148.154 225.043 148.521 225.395 148.705C225.762 148.889 226.336 149.049 227.116 149.187C228.019 149.34 228.822 149.539 229.526 149.784L229.48 151H214.219V149.807C214.663 149.608 215.06 149.47 215.412 149.394C215.779 149.302 216.238 149.21 216.789 149.118C217.478 149.026 217.983 148.896 218.304 148.728C218.625 148.544 218.87 148.147 219.038 147.535C219.222 146.923 219.314 145.951 219.314 144.62V127.362C219.314 126.108 219.207 125.182 218.992 124.585C218.778 123.989 218.495 123.606 218.143 123.438C217.807 123.27 217.302 123.14 216.629 123.048C216.078 122.956 215.619 122.864 215.252 122.772C214.9 122.681 214.525 122.52 214.127 122.291L214.173 121.12H229.388L229.434 122.313C229.113 122.436 228.654 122.566 228.057 122.704C227.216 122.918 226.543 123.132 226.038 123.346C225.533 123.56 225.105 123.897 224.753 124.356C224.416 124.8 224.248 125.412 224.248 126.192V145.033ZM245.572 125.962C245.174 125.32 244.761 124.807 244.333 124.425C243.905 124.042 243.476 123.752 243.048 123.553C242.619 123.354 242.046 123.132 241.327 122.887C240.638 122.658 240.103 122.466 239.72 122.313V121.12H247.729L269.325 143.45V129.015C269.325 127.561 269.118 126.238 268.705 125.044C268.537 124.555 268.307 124.172 268.017 123.897C267.726 123.622 267.412 123.423 267.076 123.3C266.739 123.178 266.288 123.048 265.722 122.91C265.63 122.88 265.393 122.818 265.01 122.727C264.643 122.619 264.306 122.489 264 122.336C264 121.939 264.023 121.533 264.069 121.12H276.163V122.359C275.735 122.558 275.291 122.75 274.832 122.933C273.716 123.423 272.943 123.828 272.515 124.149C272.086 124.471 271.78 124.976 271.597 125.664C271.428 126.337 271.336 127.446 271.321 128.992C271.321 129.772 271.306 130.927 271.275 132.457C271.26 133.62 271.245 135.073 271.229 136.817C271.214 138.546 271.206 140.573 271.206 142.899C271.206 143.909 271.298 145.408 271.482 147.397C271.635 149.08 271.719 150.35 271.734 151.207C271.444 151.314 271.069 151.367 270.61 151.367C270.12 151.367 269.684 151.314 269.302 151.207C268.2 149.86 266.946 148.43 265.538 146.915L247.408 127.844V143.955C247.408 144.98 247.538 146.012 247.798 147.053C247.921 147.573 248.142 147.978 248.464 148.269C248.785 148.544 249.129 148.743 249.496 148.866C249.879 148.988 250.392 149.111 251.034 149.233C251.921 149.371 252.579 149.554 253.008 149.784C253.008 150.181 252.985 150.587 252.939 151H239.996C239.965 150.725 239.95 150.312 239.95 149.761L241.005 149.485C241.984 149.241 242.757 149.003 243.323 148.774C243.905 148.544 244.402 148.17 244.815 147.649C245.243 147.129 245.496 146.418 245.572 145.515V125.962ZM313.3 151.207C313.055 151.252 312.81 151.275 312.566 151.275C312.275 151.275 311.839 151.229 311.257 151.138C310.676 151.046 310.232 151 309.926 151H286.38L286.335 149.875C286.809 149.615 287.245 149.432 287.643 149.325C288.056 149.202 288.507 149.103 288.997 149.026C289.609 148.919 290.052 148.782 290.328 148.613C290.618 148.445 290.84 148.085 290.993 147.535C291.146 146.969 291.223 146.081 291.223 144.873V127.5C291.223 126.307 291.123 125.427 290.924 124.861C290.741 124.295 290.465 123.905 290.098 123.69C289.731 123.461 289.119 123.216 288.262 122.956C288.125 122.91 287.857 122.826 287.459 122.704C287.077 122.581 286.702 122.444 286.335 122.291L286.38 121.12H309.789C310.003 121.12 310.232 121.105 310.477 121.074C310.737 121.044 310.921 121.021 311.028 121.005C311.487 120.929 311.9 120.891 312.267 120.891C312.589 120.891 312.872 120.921 313.116 120.982V128.12L311.923 128.166C311.663 127.905 311.449 127.615 311.28 127.293C311.112 126.972 310.921 126.551 310.707 126.031C310.401 125.266 310.095 124.67 309.789 124.241C309.498 123.813 309.062 123.499 308.481 123.3C307.624 123.025 306.561 122.849 305.291 122.772C304.021 122.696 302.552 122.658 300.884 122.658C298.926 122.658 297.381 122.727 296.249 122.864C296.187 123.553 296.157 124.341 296.157 125.228V134.545H302.766C303.975 134.545 304.878 134.454 305.474 134.27C306.071 134.086 306.53 133.788 306.851 133.375C307.188 132.962 307.647 132.228 308.228 131.172L308.572 130.552H309.88V140.397L308.572 140.466C308.083 139.151 307.456 138.125 306.691 137.391C305.941 136.657 304.931 136.29 303.661 136.29H296.157V144.023C296.157 145.63 296.34 146.816 296.708 147.581C297.09 148.346 297.633 148.843 298.337 149.072C299.056 149.286 300.074 149.394 301.389 149.394H303.638C305.566 149.394 307.226 149.179 308.618 148.751C310.026 148.307 311.066 147.412 311.739 146.066L312.061 145.354C312.336 144.758 312.558 144.314 312.726 144.023C312.894 143.717 313.109 143.427 313.369 143.151H314.815L313.3 151.207Z" fill="#272023"/>
<path d="M107.201 193V176.67H117.919V178.096H108.811V184.099H116.493V185.433H108.811V193H107.201ZM124.195 193V176.67H131.095C131.8 176.67 132.444 176.816 133.027 177.107C133.61 177.398 134.116 177.797 134.545 178.303C134.99 178.794 135.327 179.346 135.557 179.959C135.802 180.557 135.925 181.17 135.925 181.799C135.925 182.581 135.772 183.317 135.465 184.007C135.174 184.697 134.752 185.28 134.2 185.755C133.663 186.23 133.027 186.545 132.291 186.698L136.293 193H134.476L130.635 186.974H125.805V193H124.195ZM125.805 185.548H131.141C131.785 185.548 132.345 185.372 132.82 185.019C133.295 184.666 133.663 184.206 133.924 183.639C134.185 183.056 134.315 182.443 134.315 181.799C134.315 181.14 134.162 180.534 133.855 179.982C133.564 179.415 133.165 178.962 132.659 178.625C132.168 178.272 131.616 178.096 131.003 178.096H125.805V185.548ZM149.249 193.115C148.099 193.115 147.057 192.885 146.121 192.425C145.186 191.965 144.381 191.344 143.706 190.562C143.032 189.765 142.51 188.875 142.142 187.894C141.774 186.897 141.59 185.878 141.59 184.835C141.59 183.746 141.782 182.711 142.165 181.73C142.549 180.733 143.085 179.852 143.775 179.085C144.481 178.303 145.301 177.69 146.236 177.245C147.172 176.785 148.184 176.555 149.272 176.555C150.422 176.555 151.465 176.793 152.4 177.268C153.336 177.743 154.133 178.38 154.792 179.177C155.467 179.974 155.988 180.864 156.356 181.845C156.724 182.826 156.908 183.831 156.908 184.858C156.908 185.947 156.717 186.989 156.333 187.986C155.95 188.967 155.413 189.849 154.723 190.631C154.033 191.398 153.221 192.003 152.285 192.448C151.35 192.893 150.338 193.115 149.249 193.115ZM143.2 184.835C143.2 185.724 143.346 186.583 143.637 187.411C143.929 188.224 144.343 188.952 144.879 189.596C145.416 190.225 146.052 190.731 146.788 191.114C147.54 191.482 148.36 191.666 149.249 191.666C150.185 191.666 151.02 191.474 151.756 191.091C152.508 190.692 153.144 190.171 153.665 189.527C154.202 188.868 154.608 188.132 154.884 187.319C155.16 186.506 155.298 185.678 155.298 184.835C155.298 183.946 155.153 183.095 154.861 182.282C154.57 181.469 154.148 180.741 153.596 180.097C153.06 179.453 152.423 178.947 151.687 178.579C150.951 178.211 150.139 178.027 149.249 178.027C148.329 178.027 147.494 178.219 146.742 178.602C146.006 178.985 145.37 179.507 144.833 180.166C144.312 180.81 143.906 181.538 143.614 182.351C143.338 183.164 143.2 183.992 143.2 184.835ZM165.004 179.637V193H163.394V176.67H164.728L175.446 190.286V176.693H177.056V193H175.561L165.004 179.637ZM196.202 178.096H190.383V193H188.773V178.096H182.954V176.67H196.202V178.096ZM200.064 187.457V186.008H206.78V187.457H200.064ZM224.74 191.574V193H213.769V176.67H224.533V178.096H215.379V183.984H223.36V185.341H215.379V191.574H224.74ZM232.845 179.637V193H231.235V176.67H232.569L243.287 190.286V176.693H244.897V193H243.402L232.845 179.637ZM252.451 193V176.67H257.994C259.727 176.67 261.168 177.038 262.318 177.774C263.484 178.495 264.358 179.476 264.94 180.718C265.523 181.945 265.814 183.309 265.814 184.812C265.814 186.468 265.492 187.909 264.848 189.136C264.22 190.363 263.315 191.313 262.134 191.988C260.969 192.663 259.589 193 257.994 193H252.451ZM264.204 184.812C264.204 183.509 263.959 182.351 263.468 181.339C262.993 180.327 262.295 179.537 261.375 178.97C260.455 178.387 259.328 178.096 257.994 178.096H254.061V191.574H257.994C259.344 191.574 260.478 191.275 261.398 190.677C262.318 190.079 263.016 189.274 263.491 188.262C263.967 187.235 264.204 186.085 264.204 184.812ZM107.516 220V203.67H113.059C114.791 203.67 116.233 204.038 117.383 204.774C118.548 205.495 119.422 206.476 120.005 207.718C120.587 208.945 120.879 210.309 120.879 211.812C120.879 213.468 120.557 214.909 119.913 216.136C119.284 217.363 118.379 218.313 117.199 218.988C116.033 219.663 114.653 220 113.059 220H107.516ZM119.269 211.812C119.269 210.509 119.023 209.351 118.533 208.339C118.057 207.327 117.36 206.537 116.44 205.97C115.52 205.387 114.393 205.096 113.059 205.096H109.126V218.574H113.059C114.408 218.574 115.543 218.275 116.463 217.677C117.383 217.079 118.08 216.274 118.556 215.262C119.031 214.235 119.269 213.085 119.269 211.812ZM138.378 218.574V220H127.407V203.67H138.171V205.096H129.017V210.984H136.998V212.341H129.017V218.574H138.378ZM144.804 203.67L150.646 217.999L156.465 203.67H158.144L151.382 220H149.91L143.125 203.67H144.804ZM174.904 218.574V220H163.933V203.67H174.697V205.096H165.543V210.984H173.524V212.341H165.543V218.574H174.904ZM181.399 220V203.67H183.009V218.574H192.439V220H181.399ZM204.184 220.115C203.034 220.115 201.992 219.885 201.056 219.425C200.121 218.965 199.316 218.344 198.641 217.562C197.967 216.765 197.445 215.875 197.077 214.894C196.709 213.897 196.525 212.878 196.525 211.835C196.525 210.746 196.717 209.711 197.1 208.73C197.484 207.733 198.02 206.852 198.71 206.085C199.416 205.303 200.236 204.69 201.171 204.245C202.107 203.785 203.119 203.555 204.207 203.555C205.357 203.555 206.4 203.793 207.335 204.268C208.271 204.743 209.068 205.38 209.727 206.177C210.402 206.974 210.923 207.864 211.291 208.845C211.659 209.826 211.843 210.831 211.843 211.858C211.843 212.947 211.652 213.989 211.268 214.986C210.885 215.967 210.348 216.849 209.658 217.631C208.968 218.398 208.156 219.003 207.22 219.448C206.285 219.893 205.273 220.115 204.184 220.115ZM198.135 211.835C198.135 212.724 198.281 213.583 198.572 214.411C198.864 215.224 199.278 215.952 199.814 216.596C200.351 217.225 200.987 217.731 201.723 218.114C202.475 218.482 203.295 218.666 204.184 218.666C205.12 218.666 205.955 218.474 206.691 218.091C207.443 217.692 208.079 217.171 208.6 216.527C209.137 215.868 209.543 215.132 209.819 214.319C210.095 213.506 210.233 212.678 210.233 211.835C210.233 210.946 210.088 210.095 209.796 209.282C209.505 208.469 209.083 207.741 208.531 207.097C207.995 206.453 207.358 205.947 206.622 205.579C205.886 205.211 205.074 205.027 204.184 205.027C203.264 205.027 202.429 205.219 201.677 205.602C200.941 205.985 200.305 206.507 199.768 207.166C199.247 207.81 198.841 208.538 198.549 209.351C198.273 210.164 198.135 210.992 198.135 211.835ZM218.329 220V203.67H225.091C225.796 203.67 226.44 203.816 227.023 204.107C227.621 204.398 228.134 204.797 228.564 205.303C228.993 205.794 229.33 206.346 229.576 206.959C229.821 207.557 229.944 208.17 229.944 208.799C229.944 209.688 229.744 210.532 229.346 211.329C228.962 212.111 228.418 212.747 227.713 213.238C227.007 213.729 226.179 213.974 225.229 213.974H219.939V220H218.329ZM219.939 212.548H225.16C225.804 212.548 226.363 212.372 226.839 212.019C227.314 211.666 227.682 211.206 227.943 210.639C228.203 210.072 228.334 209.458 228.334 208.799C228.334 208.124 228.18 207.503 227.874 206.936C227.567 206.369 227.161 205.924 226.655 205.602C226.164 205.265 225.62 205.096 225.022 205.096H219.939V212.548ZM247.057 218.574V220H236.086V203.67H246.85V205.096H237.696V210.984H245.677V212.341H237.696V218.574H247.057ZM253.552 220V203.67H260.452C261.157 203.67 261.801 203.816 262.384 204.107C262.967 204.398 263.473 204.797 263.902 205.303C264.347 205.794 264.684 206.346 264.914 206.959C265.159 207.557 265.282 208.17 265.282 208.799C265.282 209.581 265.129 210.317 264.822 211.007C264.531 211.697 264.109 212.28 263.557 212.755C263.02 213.23 262.384 213.545 261.648 213.698L265.65 220H263.833L259.992 213.974H255.162V220H253.552ZM255.162 212.548H260.498C261.142 212.548 261.702 212.372 262.177 212.019C262.652 211.666 263.02 211.206 263.281 210.639C263.542 210.056 263.672 209.443 263.672 208.799C263.672 208.14 263.519 207.534 263.212 206.982C262.921 206.415 262.522 205.962 262.016 205.625C261.525 205.272 260.973 205.096 260.36 205.096H255.162V212.548Z" fill="#272023"/>
<path d="M373.13 85C373.13 123.772 360.888 181.334 331.107 229.174C301.347 276.979 254.132 315 184.13 315C130.359 315 84.5554 306.601 52.2308 288.579C19.9699 270.592 1.12965 243.03 1.12965 204.5C1.12965 165.837 18.4876 120.69 50.083 84.6446C81.6597 48.6203 127.407 21.7431 184.149 19.4999C196.79 19.4998 209.044 19.3438 220.852 19.1935C234.253 19.0229 247.08 18.8596 259.245 18.9398C282.094 19.0903 302.398 20.1027 319.317 23.528C336.239 26.9538 349.663 32.7719 358.862 42.4461C368.039 52.0977 373.13 65.715 373.13 85Z" stroke="black" stroke-width="2"/>
</svg>
